<svg width="224" height="40" viewBox="0 0 224 40" fill="none" xmlns="http://www.w3.org/2000/svg">
<g clip-path="url(#clip0_9_102)">
<path d="M20.072 12.032C20.072 11.392 20.296 10.848 20.744 10.4C21.192 9.952 21.736 9.728 22.376 9.728H40.76C41.56 9.728 42.312 9.888 43.016 10.208C43.72 10.496 44.328 10.912 44.84 11.456C45.384 11.968 45.8 12.592 46.088 13.328C46.376 14.032 46.52 14.784 46.52 15.584V16.64C46.52 17.44 46.376 18.208 46.088 18.944C45.8 19.648 45.384 20.272 44.84 20.816C44.328 21.328 43.72 21.744 43.016 22.064C42.312 22.352 41.56 22.496 40.76 22.496H15.752C14.44 22.496 13.272 22.176 12.248 21.536C11.224 20.896 10.344 20.08 9.608 19.088C8.904 18.064 8.36 16.928 7.976 15.68C7.592 14.432 7.4 13.216 7.4 12.032C7.4 10.816 7.592 9.6 7.976 8.384C8.392 7.136 8.984 6.016 9.752 5.024C10.52 4 11.448 3.168 12.536 2.528C13.624 1.888 14.856 1.568 16.232 1.568H44.216C44.856 1.568 45.4 1.792 45.848 2.24C46.296 2.688 46.52 3.232 46.52 3.872C46.52 4.512 46.296 5.056 45.848 5.504C45.4 5.952 44.856 6.176 44.216 6.176H17.288C16.168 6.176 15.256 6.384 14.552 6.8C13.88 7.184 13.336 7.664 12.92 8.24C12.536 8.816 12.264 9.456 12.104 10.16C11.976 10.832 11.912 11.456 11.912 12.032C11.912 12.608 11.976 13.248 12.104 13.952C12.264 14.624 12.536 15.248 12.92 15.824C13.336 16.4 13.88 16.896 14.552 17.312C15.256 17.696 16.168 17.888 17.288 17.888H40.568C40.952 17.888 41.288 17.712 41.576 17.36C41.896 17.008 42.056 16.592 42.056 16.112C42.056 15.632 41.912 15.216 41.624 14.864C41.368 14.512 41.016 14.336 40.568 14.336H22.376C21.736 14.336 21.192 14.112 20.744 13.664C20.296 13.216 20.072 12.672 20.072 12.032ZM55.4019 21.632C54.9219 22.208 54.3299 22.496 53.6259 22.496C52.9859 22.496 52.4419 22.272 51.9939 21.824C51.5459 21.376 51.3219 20.832 51.3219 20.192C51.3219 19.616 51.4819 19.152 51.8019 18.8L63.4659 3.104C64.0099 2.368 64.7299 1.776 65.6259 1.328C66.5219 0.847999 67.4819 0.607998 68.5059 0.607998C69.4659 0.607998 70.3779 0.815998 71.2419 1.232C72.1059 1.648 72.8099 2.224 73.3539 2.96L85.0179 18.56C85.2099 18.784 85.3699 19.04 85.4979 19.328C85.6259 19.584 85.6899 19.872 85.6899 20.192C85.6899 20.832 85.4659 21.376 85.0179 21.824C84.5699 22.272 84.0259 22.496 83.3859 22.496C82.6179 22.496 82.0099 22.192 81.5619 21.584L70.3779 6.656C70.1539 6.4 69.8659 6.128 69.5139 5.84C69.1939 5.52 68.8579 5.36 68.5059 5.36C68.1539 5.36 67.8019 5.52 67.4499 5.84C67.1299 6.128 66.8739 6.4 66.6819 6.656L55.4019 21.632ZM131.021 20.192C131.021 20.832 130.797 21.376 130.349 21.824C129.901 22.272 129.357 22.496 128.717 22.496C128.077 22.496 127.533 22.272 127.085 21.824C126.637 21.376 126.413 20.832 126.413 20.192V9.728C126.413 8.416 126.333 7.76 126.173 7.76C126.045 7.76 125.597 8.192 124.829 9.056L114.269 21.056C113.853 21.536 113.341 21.904 112.733 22.16C112.125 22.384 111.469 22.496 110.765 22.496C110.061 22.496 109.405 22.384 108.797 22.16C108.189 21.904 107.677 21.536 107.261 21.056L96.7014 9.056C95.9654 8.192 95.5174 7.76 95.3574 7.76C95.1974 7.76 95.1174 8.416 95.1174 9.728V20.192C95.1174 20.832 94.8934 21.376 94.4454 21.824C93.9974 22.272 93.4534 22.496 92.8134 22.496C92.1734 22.496 91.6294 22.272 91.1814 21.824C90.7334 21.376 90.5094 20.832 90.5094 20.192V6.176C90.5094 4.896 90.8774 3.808 91.6134 2.912C92.3494 2.016 93.3574 1.568 94.6374 1.568C95.4054 1.568 96.0934 1.76 96.7014 2.144C97.3094 2.528 97.8694 2.992 98.3814 3.536L109.421 16.112C109.581 16.272 109.773 16.448 109.997 16.64C110.253 16.8 110.509 16.88 110.765 16.88C111.021 16.88 111.261 16.8 111.485 16.64C111.741 16.448 111.949 16.272 112.109 16.112L123.101 3.536H123.149C123.597 2.928 124.141 2.448 124.781 2.096C125.421 1.744 126.125 1.568 126.893 1.568C128.173 1.568 129.181 2.016 129.917 2.912C130.653 3.808 131.021 4.896 131.021 6.176V20.192ZM173.518 5.696C171.886 7.136 170.382 8.384 169.006 9.44C167.63 10.464 166.334 11.328 165.118 12.032C166.334 12.736 167.614 13.616 168.958 14.672C170.302 15.696 171.822 16.928 173.518 18.368C173.774 18.592 173.982 18.864 174.142 19.184C174.334 19.504 174.43 19.84 174.43 20.192C174.43 20.832 174.206 21.376 173.758 21.824C173.31 22.272 172.766 22.496 172.126 22.496C171.582 22.496 171.038 22.272 170.494 21.824C168.446 20.032 166.718 18.64 165.31 17.648C163.934 16.624 162.686 15.872 161.566 15.392C160.478 14.912 159.438 14.624 158.446 14.528C157.454 14.4 156.334 14.336 155.086 14.336H154.03C152.974 14.368 151.998 14.464 151.102 14.624C150.206 14.752 149.23 15.072 148.174 15.584C147.15 16.096 145.966 16.848 144.622 17.84C143.31 18.832 141.694 20.16 139.773 21.824C139.518 22.016 139.262 22.176 139.006 22.304C138.75 22.432 138.462 22.496 138.142 22.496C137.502 22.496 136.958 22.272 136.51 21.824C136.062 21.376 135.838 20.832 135.838 20.192C135.838 19.84 135.918 19.504 136.078 19.184C136.27 18.864 136.494 18.592 136.75 18.368C138.382 16.928 139.886 15.696 141.262 14.672C142.638 13.648 143.934 12.784 145.15 12.08C143.934 11.376 142.638 10.512 141.262 9.488C139.918 8.432 138.414 7.168 136.75 5.696C136.494 5.472 136.27 5.2 136.078 4.88C135.918 4.56 135.838 4.224 135.838 3.872C135.838 3.232 136.062 2.688 136.51 2.24C136.958 1.792 137.502 1.568 138.142 1.568C138.462 1.568 138.75 1.632 139.006 1.76C139.262 1.888 139.518 2.048 139.773 2.24C141.726 3.968 143.374 5.328 144.718 6.32C146.062 7.312 147.262 8.064 148.318 8.576C149.406 9.056 150.414 9.376 151.342 9.536C152.302 9.664 153.342 9.728 154.462 9.728H155.182C156.43 9.728 157.534 9.68 158.494 9.584C159.454 9.488 160.478 9.2 161.566 8.72C162.654 8.24 163.886 7.504 165.262 6.512C166.67 5.488 168.414 4.064 170.494 2.24C171.038 1.792 171.582 1.568 172.126 1.568C172.766 1.568 173.31 1.792 173.758 2.24C174.206 2.688 174.43 3.232 174.43 3.872C174.43 4.224 174.334 4.56 174.142 4.88C173.982 5.2 173.774 5.472 173.518 5.696ZM208.476 17.888C209.564 17.888 210.46 17.696 211.164 17.312C211.868 16.896 212.412 16.4 212.796 15.824C213.212 15.248 213.484 14.624 213.612 13.952C213.772 13.248 213.852 12.608 213.852 12.032C213.852 11.456 213.772 10.832 213.612 10.16C213.484 9.456 213.212 8.816 212.796 8.24C212.412 7.664 211.868 7.184 211.164 6.8C210.46 6.384 209.564 6.176 208.476 6.176H189.084C187.964 6.176 187.052 6.384 186.348 6.8C185.676 7.184 185.132 7.664 184.716 8.24C184.332 8.816 184.06 9.456 183.9 10.16C183.772 10.832 183.708 11.456 183.708 12.032C183.708 12.608 183.772 13.248 183.9 13.952C184.06 14.624 184.332 15.248 184.716 15.824C185.132 16.4 185.676 16.896 186.348 17.312C187.052 17.696 187.964 17.888 189.084 17.888H208.476ZM218.316 12.032C218.316 13.248 218.108 14.48 217.692 15.728C217.308 16.944 216.732 18.064 215.964 19.088C215.196 20.08 214.268 20.896 213.18 21.536C212.092 22.176 210.86 22.496 209.484 22.496H187.596C186.284 22.432 185.116 22.08 184.092 21.44C183.068 20.768 182.188 19.936 181.452 18.944C180.748 17.952 180.204 16.848 179.82 15.632C179.436 14.416 179.244 13.216 179.244 12.032C179.244 10.816 179.436 9.6 179.82 8.384C180.236 7.136 180.828 6.016 181.596 5.024C182.364 4 183.292 3.168 184.38 2.528C185.468 1.888 186.7 1.568 188.076 1.568H209.964C211.276 1.632 212.444 2 213.468 2.672C214.492 3.312 215.356 4.128 216.06 5.12C216.796 6.112 217.356 7.216 217.74 8.432C218.124 9.648 218.316 10.848 218.316 12.032Z" fill="white"/>
<path d="M43.016 10.208L42.7677 10.7542L42.7782 10.759L42.7888 10.7633L43.016 10.208ZM44.84 11.456L44.4031 11.8672L44.4155 11.8805L44.4288 11.8929L44.84 11.456ZM46.088 13.328L45.5292 13.5467L45.5327 13.5552L46.088 13.328ZM46.088 18.944L46.6434 19.1712L46.6467 19.1626L46.088 18.944ZM44.84 20.816L45.2643 21.2403L45.2643 21.2403L44.84 20.816ZM43.016 22.064L43.2432 22.6193L43.2538 22.615L43.2643 22.6102L43.016 22.064ZM12.248 21.536L11.93 22.0448L11.93 22.0448L12.248 21.536ZM9.608 19.088L9.11357 19.4279L9.1197 19.4368L9.12614 19.4455L9.608 19.088ZM7.976 15.68L7.40253 15.8565L7.976 15.68ZM7.976 8.384L7.40672 8.19424L7.40385 8.20332L7.976 8.384ZM9.752 5.024L10.2265 5.39135L10.232 5.384L9.752 5.024ZM12.536 2.528L12.2318 2.01084L12.2318 2.01084L12.536 2.528ZM45.848 2.24L45.4237 2.66426L45.4237 2.66426L45.848 2.24ZM45.848 5.504L45.4237 5.07973L45.4237 5.07974L45.848 5.504ZM14.552 6.8L14.8497 7.321L14.8572 7.31656L14.552 6.8ZM12.92 8.24L12.4336 7.88871L12.427 7.89782L12.4208 7.90718L12.92 8.24ZM12.104 10.16L11.5189 10.027L11.5166 10.0373L11.5146 10.0477L12.104 10.16ZM12.104 13.952L11.5137 14.0593L11.5166 14.0752L11.5203 14.091L12.104 13.952ZM12.92 15.824L12.4208 16.1568L12.427 16.1662L12.4336 16.1753L12.92 15.824ZM14.552 17.312L14.2362 17.8222L14.2502 17.8308L14.2647 17.8387L14.552 17.312ZM41.576 17.36L41.132 16.9564L41.1215 16.968L41.1116 16.9801L41.576 17.36ZM41.624 14.864L41.1388 15.2169L41.1488 15.2307L41.1596 15.2439L41.624 14.864ZM20.744 13.664L20.3197 14.0883L20.3197 14.0883L20.744 13.664ZM20.672 12.032C20.672 11.5493 20.8341 11.1585 21.1683 10.8243L20.3197 9.97574C19.7579 10.5375 19.472 11.2347 19.472 12.032H20.672ZM21.1683 10.8243C21.5025 10.4901 21.8933 10.328 22.376 10.328V9.128C21.5787 9.128 20.8815 9.41394 20.3197 9.97574L21.1683 10.8243ZM22.376 10.328H40.76V9.128H22.376V10.328ZM40.76 10.328C41.4774 10.328 42.1444 10.4709 42.7677 10.7542L43.2643 9.66178C42.4796 9.3051 41.6426 9.128 40.76 9.128V10.328ZM42.7888 10.7633C43.4149 11.0194 43.951 11.3869 44.4031 11.8672L45.2769 11.0448C44.705 10.4371 44.0251 9.97255 43.2432 9.65267L42.7888 10.7633ZM44.4288 11.8929C44.9043 12.3405 45.2717 12.8885 45.5293 13.5466L46.6467 13.1094C46.3283 12.2955 45.8637 11.5955 45.2512 11.0191L44.4288 11.8929ZM45.5327 13.5552C45.7897 14.1834 45.92 14.8578 45.92 15.584H47.12C47.12 14.7102 46.9623 13.8806 46.6433 13.1008L45.5327 13.5552ZM45.92 15.584V16.64H47.12V15.584H45.92ZM45.92 16.64C45.92 17.3661 45.7897 18.0599 45.5293 18.7254L46.6467 19.1626C46.9624 18.3561 47.12 17.5139 47.12 16.64H45.92ZM45.5327 18.7168C45.2752 19.3462 44.9041 19.9034 44.4157 20.3917L45.2643 21.2403C45.8639 20.6406 46.3248 19.9498 46.6433 19.1712L45.5327 18.7168ZM44.4157 20.3917C43.958 20.8495 43.4107 21.2255 42.7677 21.5178L43.2643 22.6102C44.0293 22.2625 44.698 21.8065 45.2643 21.2403L44.4157 20.3917ZM42.7888 21.5087C42.1606 21.7657 41.4862 21.896 40.76 21.896V23.096C41.6338 23.096 42.4634 22.9383 43.2432 22.6193L42.7888 21.5087ZM40.76 21.896H15.752V23.096H40.76V21.896ZM15.752 21.896C14.5424 21.896 13.4864 21.6025 12.566 21.0272L11.93 22.0448C13.0576 22.7495 14.3376 23.096 15.752 23.096V21.896ZM12.566 21.0272C11.6071 20.4279 10.7822 19.6637 10.0899 18.7305L9.12614 19.4455C9.90578 20.4963 10.8409 21.3641 11.93 22.0448L12.566 21.0272ZM10.1024 18.7481C9.43463 17.7767 8.91648 16.6963 8.54947 15.5035L7.40253 15.8565C7.80352 17.1597 8.37337 18.3513 9.11357 19.4279L10.1024 18.7481ZM8.54947 15.5035C8.18127 14.3069 8 13.1504 8 12.032H6.8C6.8 13.2816 7.00274 14.5571 7.40253 15.8565L8.54947 15.5035ZM8 12.032C8 10.8802 8.1817 9.72509 8.54815 8.56468L7.40385 8.20332C7.0023 9.47491 6.8 10.7518 6.8 12.032H8ZM8.54521 8.57374C8.94089 7.3867 9.50178 6.32731 10.2264 5.3913L9.27757 4.6567C8.46622 5.70468 7.84311 6.8853 7.40679 8.19426L8.54521 8.57374ZM10.232 5.384C10.9531 4.42258 11.8216 3.64434 12.8402 3.04516L12.2318 2.01084C11.0744 2.69166 10.0869 3.57742 9.272 4.664L10.232 5.384ZM12.8402 3.04516C13.8278 2.46423 14.953 2.168 16.232 2.168V0.968C14.759 0.968 13.4202 1.31177 12.2318 2.01084L12.8402 3.04516ZM16.232 2.168H44.216V0.968H16.232V2.168ZM44.216 2.168C44.6987 2.168 45.0895 2.33006 45.4237 2.66426L46.2723 1.81573C45.7105 1.25394 45.0133 0.968 44.216 0.968V2.168ZM45.4237 2.66426C45.7579 2.99846 45.92 3.38931 45.92 3.872H47.12C47.12 3.07468 46.8341 2.37753 46.2723 1.81573L45.4237 2.66426ZM45.92 3.872C45.92 4.35468 45.7579 4.74553 45.4237 5.07973L46.2723 5.92826C46.8341 5.36646 47.12 4.66931 47.12 3.872H45.92ZM45.4237 5.07974C45.0895 5.41394 44.6987 5.576 44.216 5.576V6.776C45.0133 6.776 45.7105 6.49006 46.2723 5.92826L45.4237 5.07974ZM44.216 5.576H17.288V6.776H44.216V5.576ZM17.288 5.576C16.0987 5.576 15.0713 5.79624 14.2468 6.28344L14.8572 7.31656C15.4407 6.97176 16.2373 6.776 17.288 6.776V5.576ZM14.2543 6.27905C13.5147 6.70167 12.904 7.23734 12.4336 7.88871L13.4064 8.59129C13.768 8.09066 14.2453 7.66633 14.8497 7.32095L14.2543 6.27905ZM12.4208 7.90718C11.9945 8.5466 11.6944 9.25484 11.5189 10.027L12.6891 10.293C12.8336 9.65716 13.0775 9.0854 13.4192 8.57282L12.4208 7.90718ZM11.5146 10.0477C11.3808 10.7501 11.312 11.4121 11.312 12.032H12.512C12.512 11.4999 12.5712 10.9139 12.6934 10.2723L11.5146 10.0477ZM11.312 12.032C11.312 12.6514 11.3807 13.328 11.5137 14.0593L12.6943 13.8447C12.5713 13.168 12.512 12.5646 12.512 12.032H11.312ZM11.5203 14.091C11.6968 14.8322 11.9975 15.5218 12.4208 16.1568L13.4192 15.4912C13.0745 14.9742 12.8312 14.4158 12.6877 13.813L11.5203 14.091ZM12.4336 16.1753C12.9004 16.8217 13.505 17.3695 14.2362 17.8222L14.8678 16.8018C14.255 16.4225 13.7716 15.9783 13.4064 15.4727L12.4336 16.1753ZM14.2647 17.8387C15.0849 18.2861 16.1053 18.488 17.288 18.488V17.288C16.2307 17.288 15.4271 17.1059 14.8393 16.7853L14.2647 17.8387ZM17.288 18.488H40.568V17.288H17.288V18.488ZM40.568 18.488C41.1659 18.488 41.6618 18.2027 42.0404 17.7399L41.1116 16.9801C40.9142 17.2213 40.7382 17.288 40.568 17.288V18.488ZM42.02 17.7636C42.4414 17.3001 42.656 16.7398 42.656 16.112H41.456C41.456 16.4442 41.3506 16.7159 41.132 16.9564L42.02 17.7636ZM42.656 16.112C42.656 15.5018 42.4692 14.9495 42.0884 14.4841L41.1596 15.2439C41.3548 15.4825 41.456 15.7622 41.456 16.112H42.656ZM42.1092 14.5111C41.7365 13.9986 41.2013 13.736 40.568 13.736V14.936C40.8307 14.936 40.9995 15.0254 41.1388 15.2169L42.1092 14.5111ZM40.568 13.736H22.376V14.936H40.568V13.736ZM22.376 13.736C21.8933 13.736 21.5025 13.5739 21.1683 13.2397L20.3197 14.0883C20.8815 14.6501 21.5787 14.936 22.376 14.936V13.736ZM21.1683 13.2397C20.8341 12.9055 20.672 12.5147 20.672 12.032H19.472C19.472 12.8293 19.7579 13.5265 20.3197 14.0883L21.1683 13.2397ZM55.4019 21.632L55.8628 22.0161L55.8723 22.0048L55.8811 21.993L55.4019 21.632ZM51.9939 21.824L52.4181 21.3997L52.4181 21.3997L51.9939 21.824ZM51.8019 18.8L52.2458 19.2036L52.2658 19.1817L52.2835 19.1579L51.8019 18.8ZM63.4659 3.104L63.9475 3.46188L63.9484 3.46063L63.4659 3.104ZM65.6259 1.328L65.8942 1.86466L65.9018 1.86088L65.9092 1.85689L65.6259 1.328ZM71.2419 1.232L71.5022 0.691398L71.5022 0.691397L71.2419 1.232ZM73.3539 2.96L72.8714 3.31664L72.8733 3.31929L73.3539 2.96ZM85.0179 18.56L84.5373 18.9193L84.5493 18.9353L84.5623 18.9505L85.0179 18.56ZM85.4979 19.328L84.9496 19.5717L84.9551 19.5841L84.9612 19.5963L85.4979 19.328ZM81.5619 21.584L82.0449 21.2281L82.0421 21.2242L81.5619 21.584ZM70.3779 6.656L70.8581 6.29625L70.8444 6.27803L70.8294 6.2609L70.3779 6.656ZM69.5139 5.84L69.0896 6.26426L69.1108 6.28542L69.1339 6.30437L69.5139 5.84ZM67.4499 5.84L67.8513 6.28598L67.8535 6.28396L67.4499 5.84ZM66.6819 6.656L67.1611 7.01698L67.1619 7.016L66.6819 6.656ZM54.9409 21.2479C54.5665 21.6973 54.139 21.896 53.6259 21.896V23.096C54.5208 23.096 55.2773 22.7187 55.8628 22.0161L54.9409 21.2479ZM53.6259 21.896C53.1432 21.896 52.7523 21.7339 52.4181 21.3997L51.5696 22.2483C52.1314 22.8101 52.8286 23.096 53.6259 23.096V21.896ZM52.4181 21.3997C52.0839 21.0655 51.9219 20.6747 51.9219 20.192H50.7219C50.7219 20.9893 51.0078 21.6865 51.5696 22.2483L52.4181 21.3997ZM51.9219 20.192C51.9219 19.7322 52.0465 19.4229 52.2458 19.2036L51.3579 18.3964C50.9173 18.8811 50.7219 19.4998 50.7219 20.192H51.9219ZM52.2835 19.1579L63.9475 3.46187L62.9843 2.74612L51.3203 18.4421L52.2835 19.1579ZM63.9484 3.46063C64.431 2.80768 65.0746 2.27444 65.8942 1.86466L65.3575 0.791344C64.3851 1.27756 63.5888 1.92832 62.9834 2.74736L63.9484 3.46063ZM65.9092 1.85689C66.7174 1.42393 67.58 1.208 68.5059 1.208V0.00799787C67.3838 0.00799787 66.3264 0.272067 65.3425 0.799112L65.9092 1.85689ZM68.5059 1.208C69.3759 1.208 70.1989 1.39574 70.9816 1.7726L71.5022 0.691397C70.5569 0.236255 69.5559 0.00799787 68.5059 0.00799787V1.208ZM70.9816 1.7726C71.762 2.14835 72.3882 2.6629 72.8714 3.31663L73.8364 2.60336C73.2316 1.7851 72.4498 1.14765 71.5022 0.691398L70.9816 1.7726ZM72.8733 3.31929L84.5373 18.9193L85.4984 18.2007L73.8344 2.60071L72.8733 3.31929ZM84.5623 18.9505C84.714 19.1274 84.8436 19.3332 84.9496 19.5717L86.0462 19.0843C85.8961 18.7468 85.7058 18.4406 85.4734 18.1695L84.5623 18.9505ZM84.9612 19.5963C85.0429 19.7596 85.0899 19.954 85.0899 20.192H86.2899C86.2899 19.79 86.2089 19.4084 86.0345 19.0597L84.9612 19.5963ZM85.0899 20.192C85.0899 20.6747 84.9278 21.0655 84.5936 21.3997L85.4421 22.2483C86.0039 21.6865 86.2899 20.9893 86.2899 20.192H85.0899ZM84.5936 21.3997C84.2594 21.7339 83.8686 21.896 83.3859 21.896V23.096C84.1832 23.096 84.8803 22.8101 85.4421 22.2483L84.5936 21.3997ZM83.3859 21.896C82.8047 21.896 82.3776 21.6796 82.0449 21.2281L81.0788 21.9399C81.6422 22.7044 82.431 23.096 83.3859 23.096V21.896ZM82.0421 21.2242L70.8581 6.29625L69.8977 7.01575L81.0817 21.9438L82.0421 21.2242ZM70.8294 6.2609C70.5776 5.97313 70.2636 5.67814 69.8938 5.37562L69.1339 6.30437C69.4682 6.57786 69.7301 6.82687 69.9263 7.0511L70.8294 6.2609ZM69.9381 5.41574C69.5392 5.01684 69.059 4.76 68.5059 4.76V5.96C68.6568 5.96 68.8485 6.02316 69.0896 6.26426L69.9381 5.41574ZM68.5059 4.76C67.9588 4.76 67.4694 5.0114 67.0463 5.39603L67.8535 6.28396C68.1344 6.0286 68.3489 5.96 68.5059 5.96V4.76ZM67.0485 5.39402C66.7088 5.69977 66.4236 6.0003 66.2019 6.296L67.1619 7.016C67.3241 6.7997 67.551 6.55623 67.8513 6.28598L67.0485 5.39402ZM66.2026 6.29502L54.9226 21.271L55.8811 21.993L67.1611 7.01698L66.2026 6.29502ZM124.829 9.056L124.381 8.65738L124.379 8.65962L124.829 9.056ZM114.269 21.056L113.819 20.6596L113.816 20.663L114.269 21.056ZM112.733 22.16L112.941 22.723L112.954 22.7183L112.966 22.713L112.733 22.16ZM108.797 22.16L108.565 22.713L108.577 22.7183L108.59 22.723L108.797 22.16ZM107.261 21.056L107.715 20.663L107.712 20.6596L107.261 21.056ZM96.7014 9.056L96.2446 9.44513L96.2509 9.45238L96.7014 9.056ZM94.4454 21.824L94.0211 21.3997L94.0211 21.3997L94.4454 21.824ZM91.1814 21.824L91.6056 21.3997L91.6056 21.3997L91.1814 21.824ZM91.6134 2.912L91.1497 2.53115L91.1497 2.53115L91.6134 2.912ZM96.7014 2.144L96.381 2.65129L96.381 2.65129L96.7014 2.144ZM98.3814 3.536L98.8323 3.14017L98.8254 3.13235L98.8183 3.12478L98.3814 3.536ZM109.421 16.112L108.97 16.5078L108.983 16.5225L108.997 16.5363L109.421 16.112ZM109.997 16.64L109.607 17.0956L109.641 17.1249L109.679 17.1488L109.997 16.64ZM111.485 16.64L111.834 17.1284L111.845 17.12L111.485 16.64ZM112.109 16.112L112.534 16.5363L112.548 16.522L112.561 16.5069L112.109 16.112ZM123.101 3.536V2.936H122.829L122.65 3.14114L123.101 3.536ZM123.149 3.536V4.136H123.453L123.632 3.89192L123.149 3.536ZM124.781 2.096L125.071 2.62173L125.071 2.62173L124.781 2.096ZM129.917 2.912L130.381 2.53115L130.381 2.53115L129.917 2.912ZM130.421 20.192C130.421 20.6747 130.259 21.0655 129.925 21.3997L130.774 22.2483C131.335 21.6865 131.621 20.9893 131.621 20.192H130.421ZM129.925 21.3997C129.591 21.7339 129.2 21.896 128.717 21.896V23.096C129.515 23.096 130.212 22.8101 130.774 22.2483L129.925 21.3997ZM128.717 21.896C128.235 21.896 127.844 21.7339 127.51 21.3997L126.661 22.2483C127.223 22.8101 127.92 23.096 128.717 23.096V21.896ZM127.51 21.3997C127.175 21.0655 127.013 20.6747 127.013 20.192H125.813C125.813 20.9893 126.099 21.6865 126.661 22.2483L127.51 21.3997ZM127.013 20.192V9.728H125.813V20.192H127.013ZM127.013 9.728C127.013 9.06644 126.994 8.54478 126.949 8.17937C126.927 8.00254 126.896 7.8247 126.842 7.67685C126.816 7.60511 126.77 7.49914 126.686 7.40119C126.596 7.29618 126.425 7.16 126.173 7.16V8.36C125.962 8.36 125.828 8.24431 125.773 8.18031C125.725 8.12336 125.711 8.07889 125.715 8.08915C125.721 8.1053 125.739 8.17346 125.758 8.32463C125.793 8.61522 125.813 9.07756 125.813 9.728H127.013ZM126.173 7.16C126.011 7.16 125.885 7.221 125.834 7.24775C125.768 7.2822 125.707 7.32352 125.657 7.361C125.556 7.43674 125.444 7.53734 125.325 7.65209C125.084 7.88423 124.768 8.22183 124.381 8.65738L125.278 9.45462C125.659 9.02617 125.951 8.71577 126.158 8.51591C126.263 8.41466 126.334 8.35326 126.377 8.321C126.399 8.30448 126.401 8.3053 126.387 8.31275C126.379 8.31678 126.359 8.32666 126.329 8.33628C126.301 8.3453 126.246 8.36 126.173 8.36V7.16ZM124.379 8.65962L113.819 20.6596L114.72 21.4524L125.28 9.45238L124.379 8.65962ZM113.816 20.663C113.463 21.0708 113.027 21.3853 112.501 21.607L112.966 22.713C113.656 22.4227 114.244 22.0012 114.723 21.449L113.816 20.663ZM112.526 21.597C111.99 21.7945 111.405 21.896 110.765 21.896V23.096C111.534 23.096 112.261 22.9735 112.941 22.723L112.526 21.597ZM110.765 21.896C110.126 21.896 109.541 21.7945 109.005 21.597L108.59 22.723C109.27 22.9735 109.997 23.096 110.765 23.096V21.896ZM109.03 21.607C108.504 21.3853 108.068 21.0708 107.715 20.663L106.808 21.449C107.287 22.0012 107.875 22.4227 108.565 22.713L109.03 21.607ZM107.712 20.6596L97.1518 8.65962L96.2509 9.45238L106.811 21.4524L107.712 20.6596ZM97.1581 8.66692C96.7859 8.22999 96.475 7.88849 96.2299 7.65209C96.1085 7.53509 95.99 7.43084 95.8789 7.35189C95.8234 7.31242 95.7573 7.2704 95.6841 7.2363C95.618 7.20554 95.5018 7.16 95.3574 7.16V8.36C95.2529 8.36 95.1857 8.32796 95.1777 8.3242C95.1624 8.3171 95.1634 8.31557 95.1839 8.33011C95.2247 8.35916 95.2942 8.41691 95.3969 8.51591C95.5997 8.7115 95.8808 9.01801 96.2446 9.44508L97.1581 8.66692ZM95.3574 7.16C95.1062 7.16 94.9344 7.29618 94.8448 7.40119C94.7612 7.49914 94.7151 7.60511 94.6889 7.67685C94.6348 7.8247 94.6034 8.00254 94.5818 8.17937C94.5372 8.54478 94.5174 9.06644 94.5174 9.728H95.7174C95.7174 9.07756 95.7375 8.61522 95.773 8.32463C95.7914 8.17346 95.8099 8.1053 95.8158 8.08915C95.8196 8.07889 95.8061 8.12336 95.7575 8.18031C95.7028 8.24431 95.5685 8.36 95.3574 8.36V7.16ZM94.5174 9.728V20.192H95.7174V9.728H94.5174ZM94.5174 20.192C94.5174 20.6747 94.3553 21.0655 94.0211 21.3997L94.8696 22.2483C95.4314 21.6865 95.7174 20.9893 95.7174 20.192H94.5174ZM94.0211 21.3997C93.6869 21.7339 93.2961 21.896 92.8134 21.896V23.096C93.6107 23.096 94.3078 22.8101 94.8696 22.2483L94.0211 21.3997ZM92.8134 21.896C92.3307 21.896 91.9398 21.7339 91.6056 21.3997L90.7571 22.2483C91.3189 22.8101 92.0161 23.096 92.8134 23.096V21.896ZM91.6056 21.3997C91.2714 21.0655 91.1094 20.6747 91.1094 20.192H89.9094C89.9094 20.9893 90.1953 21.6865 90.7571 22.2483L91.6056 21.3997ZM91.1094 20.192V6.176H89.9094V20.192H91.1094ZM91.1094 6.176C91.1094 5.01951 91.4385 4.07019 92.077 3.29284L91.1497 2.53115C90.3163 3.54581 89.9094 4.77249 89.9094 6.176H91.1094ZM92.077 3.29284C92.6863 2.55115 93.5158 2.168 94.6374 2.168V0.968C93.199 0.968 92.0125 1.48085 91.1497 2.53115L92.077 3.29284ZM94.6374 2.168C95.3 2.168 95.8755 2.33202 96.381 2.65129L97.0218 1.63671C96.3113 1.18798 95.5107 0.968 94.6374 0.968V2.168ZM96.381 2.65129C96.9446 3.00727 97.4657 3.43859 97.9445 3.94722L98.8183 3.12478C98.273 2.54541 97.6741 2.04873 97.0218 1.63671L96.381 2.65129ZM97.9305 3.93183L108.97 16.5078L109.872 15.7162L98.8323 3.14017L97.9305 3.93183ZM108.997 16.5363C109.171 16.7098 109.375 16.8964 109.607 17.0956L110.388 16.1844C110.172 15.9996 109.992 15.8342 109.846 15.6877L108.997 16.5363ZM109.679 17.1488C110.013 17.3576 110.378 17.48 110.765 17.48V16.28C110.641 16.28 110.493 16.2424 110.315 16.1312L109.679 17.1488ZM110.765 17.48C111.156 17.48 111.516 17.3551 111.834 17.1282L111.137 16.1518C111.006 16.2449 110.887 16.28 110.765 16.28V17.48ZM111.845 17.12C112.116 16.9173 112.347 16.7227 112.534 16.5363L111.685 15.6877C111.552 15.8213 111.367 15.9787 111.125 16.16L111.845 17.12ZM112.561 16.5069L123.553 3.93086L122.65 3.14114L111.658 15.7171L112.561 16.5069ZM123.101 4.136H123.149V2.936H123.101V4.136ZM123.632 3.89192C124.031 3.35146 124.509 2.9304 125.071 2.62173L124.492 1.57027C123.773 1.9656 123.164 2.50454 122.666 3.18008L123.632 3.89192ZM125.071 2.62173C125.617 2.32098 126.221 2.168 126.893 2.168V0.968C126.03 0.968 125.225 1.16701 124.492 1.57027L125.071 2.62173ZM126.893 2.168C128.015 2.168 128.844 2.55115 129.454 3.29284L130.381 2.53115C129.518 1.48085 128.332 0.968 126.893 0.968V2.168ZM129.454 3.29284C130.092 4.07019 130.421 5.01951 130.421 6.176H131.621C131.621 4.77249 131.214 3.54581 130.381 2.53115L129.454 3.29284ZM130.421 6.176V20.192H131.621V6.176H130.421ZM173.518 5.696L173.122 5.24445L173.121 5.2461L173.518 5.696ZM169.006 9.44L169.364 9.92139L169.371 9.91598L169.006 9.44ZM165.118 12.032L164.817 11.5127L163.92 12.032L164.817 12.5513L165.118 12.032ZM168.958 14.672L168.587 15.1438L168.594 15.1493L168.958 14.672ZM173.518 18.368L173.913 17.9164L173.906 17.9106L173.518 18.368ZM174.142 19.184L173.605 19.4523L173.615 19.4729L173.627 19.4927L174.142 19.184ZM170.494 21.824L170.098 22.2755L170.105 22.2815L170.112 22.2872L170.494 21.824ZM165.31 17.648L164.951 18.1293L164.958 18.134L164.964 18.1385L165.31 17.648ZM161.566 15.392L161.323 15.941L161.329 15.9435L161.566 15.392ZM158.446 14.528L158.369 15.1231L158.378 15.1243L158.388 15.1252L158.446 14.528ZM154.03 14.336V13.736H154.02L154.011 13.7363L154.03 14.336ZM151.102 14.624L151.186 15.218L151.197 15.2165L151.207 15.2147L151.102 14.624ZM148.174 15.584L147.912 15.0441L147.905 15.0473L148.174 15.584ZM144.622 17.84L144.265 17.3572L144.26 17.3614L144.622 17.84ZM139.773 21.824L140.134 22.304L140.15 22.2913L140.166 22.2774L139.773 21.824ZM139.006 22.304L138.737 21.7673L138.737 21.7673L139.006 22.304ZM136.51 21.824L136.934 21.3997L136.934 21.3997L136.51 21.824ZM136.078 19.184L135.563 18.8753L135.551 18.8951L135.541 18.9157L136.078 19.184ZM136.75 18.368L137.145 18.8195L137.146 18.8179L136.75 18.368ZM141.262 14.672L140.903 14.1907L140.903 14.1907L141.262 14.672ZM145.15 12.08L145.45 12.5993L146.347 12.08L145.45 11.5607L145.15 12.08ZM141.262 9.488L140.891 9.95979L140.897 9.96465L140.903 9.96934L141.262 9.488ZM136.75 5.696L137.147 5.2466L137.145 5.24445L136.75 5.696ZM136.078 4.88L135.541 5.14833L135.551 5.16894L135.563 5.1887L136.078 4.88ZM136.51 2.24L136.085 1.81573L136.085 1.81573L136.51 2.24ZM139.006 1.76L138.737 2.29666L138.737 2.29666L139.006 1.76ZM139.773 2.24L140.171 1.79074L140.153 1.77461L140.134 1.76L139.773 2.24ZM144.718 6.32L145.074 5.83725L145.074 5.83725L144.718 6.32ZM148.318 8.576L148.056 9.11589L148.065 9.1206L148.075 9.12495L148.318 8.576ZM151.342 9.536L151.24 10.1273L151.251 10.1292L151.262 10.1307L151.342 9.536ZM158.494 9.584L158.553 10.181L158.553 10.181L158.494 9.584ZM161.566 8.72L161.808 9.26895L161.808 9.26895L161.566 8.72ZM165.262 6.512L165.612 6.99871L165.614 6.99724L165.262 6.512ZM170.494 2.24L170.112 1.77684L170.105 1.78275L170.098 1.78888L170.494 2.24ZM173.758 2.24L174.182 1.81573L174.182 1.81573L173.758 2.24ZM174.142 4.88L173.627 4.5713L173.615 4.59106L173.605 4.61167L174.142 4.88ZM173.121 5.2461C171.496 6.67921 170.003 7.91812 168.64 8.96401L169.371 9.91598C170.76 8.84988 172.275 7.59279 173.914 6.1459L173.121 5.2461ZM168.647 8.95866C167.286 9.9718 166.009 10.8225 164.817 11.5127L165.418 12.5513C166.658 11.8335 167.973 10.9562 169.364 9.92134L168.647 8.95866ZM164.817 12.5513C166.004 13.2385 167.26 14.1017 168.587 15.1438L169.328 14.2002C167.967 13.1303 166.663 12.2335 165.418 11.5127L164.817 12.5513ZM168.594 15.1493C169.927 16.1652 171.439 17.3902 173.129 18.8254L173.906 17.9106C172.204 16.4658 170.676 15.2268 169.321 14.1947L168.594 15.1493ZM173.122 18.8195C173.317 18.9896 173.478 19.1983 173.605 19.4523L174.678 18.9157C174.485 18.5297 174.23 18.1944 173.913 17.9165L173.122 18.8195ZM173.627 19.4927C173.767 19.7253 173.83 19.9554 173.83 20.192H175.03C175.03 19.7246 174.9 19.2827 174.656 18.8753L173.627 19.4927ZM173.83 20.192C173.83 20.6747 173.667 21.0655 173.333 21.3997L174.182 22.2483C174.744 21.6865 175.03 20.9893 175.03 20.192H173.83ZM173.333 21.3997C172.999 21.7339 172.608 21.896 172.126 21.896V23.096C172.923 23.096 173.62 22.8101 174.182 22.2483L173.333 21.3997ZM172.126 21.896C171.757 21.896 171.344 21.7469 170.875 21.3608L170.112 22.2872C170.731 22.7971 171.406 23.096 172.126 23.096V21.896ZM170.889 21.3725C168.833 19.5735 167.087 18.1665 165.655 17.1575L164.964 18.1385C166.348 19.1135 168.058 20.4904 170.098 22.2755L170.889 21.3725ZM165.668 17.1667C164.268 16.125 162.979 15.3448 161.802 14.8405L161.329 15.9435C162.392 16.3992 163.599 17.123 164.951 18.1293L165.668 17.1667ZM161.808 14.843C160.672 14.3421 159.57 14.034 158.503 13.9308L158.388 15.1252C159.305 15.214 160.283 15.4819 161.323 15.9409L161.808 14.843ZM158.522 13.9329C157.5 13.801 156.353 13.736 155.086 13.736V14.936C156.314 14.936 157.407 14.999 158.369 15.1231L158.522 13.9329ZM155.086 13.736H154.03V14.936H155.086V13.736ZM154.011 13.7363C152.931 13.769 151.925 13.8675 150.996 14.0333L151.207 15.2147C152.07 15.0605 153.016 14.967 154.048 14.9357L154.011 13.7363ZM151.017 14.03C150.044 14.169 149.008 14.5126 147.912 15.0441L148.435 16.1239C149.451 15.6314 150.367 15.335 151.186 15.218L151.017 14.03ZM147.905 15.0473C146.84 15.58 145.626 16.3532 144.265 17.3573L144.978 18.3227C146.305 17.3428 147.459 16.612 148.442 16.1207L147.905 15.0473ZM144.26 17.3614C142.933 18.3645 141.306 19.702 139.381 21.3706L140.166 22.2774C142.081 20.618 143.686 19.2995 144.983 18.3186L144.26 17.3614ZM139.413 21.344C139.183 21.5169 138.957 21.6572 138.737 21.7673L139.274 22.8407C139.566 22.6948 139.852 22.5151 140.134 22.304L139.413 21.344ZM138.737 21.7673C138.574 21.849 138.379 21.896 138.142 21.896V23.096C138.544 23.096 138.925 23.015 139.274 22.8407L138.737 21.7673ZM138.142 21.896C137.659 21.896 137.268 21.7339 136.934 21.3997L136.085 22.2483C136.647 22.8101 137.344 23.096 138.142 23.096V21.896ZM136.934 21.3997C136.6 21.0655 136.438 20.6747 136.438 20.192H135.238C135.238 20.9893 135.523 21.6865 136.085 22.2483L136.934 21.3997ZM136.438 20.192C136.438 19.9347 136.495 19.6904 136.614 19.4523L135.541 18.9157C135.34 19.3176 135.238 19.7453 135.238 20.192H136.438ZM136.592 19.4927C136.755 19.2211 136.94 18.9986 137.145 18.8195L136.354 17.9165C136.047 18.1854 135.784 18.5069 135.563 18.8753L136.592 19.4927ZM137.146 18.8179C138.769 17.3861 140.26 16.1652 141.62 15.1533L140.903 14.1907C139.511 15.2268 137.994 16.4699 136.353 17.9181L137.146 18.8179ZM141.62 15.1533C142.981 14.1402 144.258 13.2895 145.45 12.5993L144.849 11.5607C143.609 12.2785 142.294 13.1558 140.903 14.1907L141.62 15.1533ZM145.45 11.5607C144.258 10.8705 142.981 10.0198 141.62 9.00666L140.903 9.96934C142.294 11.0042 143.609 11.8815 144.849 12.5993L145.45 11.5607ZM141.632 9.01621C140.3 7.96917 138.805 6.71302 137.147 5.2466L136.352 6.1454C138.022 7.62298 139.535 8.89483 140.891 9.95979L141.632 9.01621ZM137.145 5.24445C136.94 5.06535 136.755 4.84293 136.592 4.5713L135.563 5.1887C135.784 5.55707 136.047 5.87865 136.354 6.14755L137.145 5.24445ZM136.614 4.61167C136.495 4.37357 136.438 4.12928 136.438 3.872H135.238C135.238 4.31872 135.34 4.74643 135.541 5.14833L136.614 4.61167ZM136.438 3.872C136.438 3.38931 136.6 2.99846 136.934 2.66426L136.085 1.81573C135.523 2.37753 135.238 3.07468 135.238 3.872H136.438ZM136.934 2.66426C137.268 2.33006 137.659 2.168 138.142 2.168V0.968C137.344 0.968 136.647 1.25394 136.085 1.81573L136.934 2.66426ZM138.142 2.168C138.379 2.168 138.574 2.21501 138.737 2.29666L139.274 1.22334C138.925 1.04899 138.544 0.968 138.142 0.968V2.168ZM138.737 2.29666C138.957 2.4068 139.183 2.54711 139.413 2.72L140.134 1.76C139.852 1.54889 139.566 1.36919 139.274 1.22334L138.737 2.29666ZM139.376 2.68926C141.335 4.4233 142.997 5.79608 144.361 6.80274L145.074 5.83725C143.75 4.85992 142.116 3.5127 140.171 1.79074L139.376 2.68926ZM144.361 6.80274C145.724 7.80828 146.956 8.58262 148.056 9.11589L148.579 8.03611C147.567 7.54538 146.399 6.81572 145.074 5.83725L144.361 6.80274ZM148.075 9.12495C149.197 9.61982 150.253 9.95711 151.24 10.1273L151.443 8.94472C150.574 8.79489 149.614 8.49218 148.56 8.02705L148.075 9.12495ZM151.262 10.1307C152.252 10.2627 153.319 10.328 154.462 10.328V9.128C153.364 9.128 152.351 9.06527 151.421 8.94126L151.262 10.1307ZM154.462 10.328H155.182V9.128H154.462V10.328ZM155.182 10.328C156.444 10.328 157.569 10.2795 158.553 10.181L158.434 8.98698C157.498 9.08052 156.415 9.128 155.182 9.128V10.328ZM158.553 10.181C159.589 10.0775 160.675 9.76879 161.808 9.26895L161.323 8.17105C160.28 8.63121 159.318 8.89854 158.434 8.98698L158.553 10.181ZM161.808 9.26895C162.946 8.76659 164.216 8.00575 165.612 6.99871L164.911 6.02529C163.555 7.00225 162.361 7.71341 161.323 8.17105L161.808 9.26895ZM165.614 6.99724C167.043 5.95819 168.802 4.52103 170.889 2.69111L170.098 1.78888C168.025 3.60696 166.296 5.01781 164.909 6.02676L165.614 6.99724ZM170.875 2.70316C171.344 2.3171 171.757 2.168 172.126 2.168V0.968C171.406 0.968 170.731 1.2669 170.112 1.77684L170.875 2.70316ZM172.126 2.168C172.608 2.168 172.999 2.33006 173.333 2.66426L174.182 1.81573C173.62 1.25394 172.923 0.968 172.126 0.968V2.168ZM173.333 2.66426C173.667 2.99846 173.83 3.38931 173.83 3.872H175.03C175.03 3.07468 174.744 2.37753 174.182 1.81573L173.333 2.66426ZM173.83 3.872C173.83 4.10864 173.767 4.33871 173.627 4.5713L174.656 5.1887C174.9 4.78129 175.03 4.33936 175.03 3.872H173.83ZM173.605 4.61167C173.478 4.86565 173.317 5.07439 173.122 5.24445L173.913 6.14755C174.23 5.86961 174.485 5.53435 174.678 5.14833L173.605 4.61167ZM211.164 17.312L211.451 17.8387L211.46 17.8338L211.469 17.8286L211.164 17.312ZM212.796 15.824L212.309 15.4727L212.303 15.4818L212.297 15.4912L212.796 15.824ZM213.612 13.952L213.027 13.819L213.024 13.8293L213.022 13.8397L213.612 13.952ZM213.612 10.16L213.021 10.2673L213.024 10.2832L213.028 10.299L213.612 10.16ZM212.796 8.24L212.297 8.57282L212.303 8.58218L212.309 8.59129L212.796 8.24ZM211.164 6.8L210.859 7.31656L210.867 7.3218L210.876 7.32674L211.164 6.8ZM186.348 6.8L186.645 7.321L186.653 7.31656L186.348 6.8ZM184.716 8.24L184.229 7.88871L184.223 7.89782L184.217 7.90718L184.716 8.24ZM183.9 10.16L183.315 10.027L183.312 10.0373L183.31 10.0477L183.9 10.16ZM183.9 13.952L183.309 14.0593L183.312 14.0752L183.316 14.091L183.9 13.952ZM184.716 15.824L184.217 16.1568L184.223 16.1662L184.229 16.1753L184.716 15.824ZM186.348 17.312L186.032 17.8222L186.046 17.8308L186.06 17.8387L186.348 17.312ZM217.692 15.728L217.122 15.5382L217.12 15.5473L217.692 15.728ZM215.964 19.088L216.438 19.4553L216.444 19.448L215.964 19.088ZM213.18 21.536L213.484 22.0532L213.484 22.0532L213.18 21.536ZM187.596 22.496L187.567 23.0953L187.581 23.096H187.596V22.496ZM184.092 21.44L183.762 21.9418L183.774 21.9488L184.092 21.44ZM181.452 18.944L180.962 19.2913L180.97 19.3015L181.452 18.944ZM179.82 15.632L180.392 15.4513L180.392 15.4513L179.82 15.632ZM179.82 8.384L179.25 8.19424L179.248 8.20332L179.82 8.384ZM181.596 5.024L182.07 5.39135L182.076 5.384L181.596 5.024ZM184.38 2.528L184.076 2.01084L184.076 2.01084L184.38 2.528ZM209.964 1.568L209.993 0.968712L209.978 0.968H209.964V1.568ZM213.468 2.672L213.138 3.17375L213.15 3.1808L213.468 2.672ZM216.06 5.12L215.57 5.46732L215.578 5.47751L216.06 5.12ZM217.74 8.432L218.312 8.25132L218.312 8.25132L217.74 8.432ZM208.476 18.488C209.63 18.488 210.633 18.2849 211.451 17.8387L210.876 16.7853C210.286 17.1071 209.498 17.288 208.476 17.288V18.488ZM211.469 17.8286C212.237 17.3749 212.853 16.8203 213.295 16.1568L212.297 15.4912C211.971 15.9797 211.499 16.4171 210.859 16.7954L211.469 17.8286ZM213.282 16.1753C213.748 15.5309 214.056 14.8259 214.201 14.0643L213.022 13.8397C212.911 14.4221 212.676 14.9651 212.309 15.4727L213.282 16.1753ZM214.197 14.085C214.364 13.3478 214.452 12.6623 214.452 12.032H213.252C213.252 12.5537 213.179 13.1482 213.027 13.819L214.197 14.085ZM214.452 12.032C214.452 11.401 214.364 10.7298 214.195 10.021L213.028 10.299C213.179 10.9342 213.252 11.511 213.252 12.032H214.452ZM214.202 10.0527C214.058 9.26126 213.751 8.53779 213.282 7.8887L212.309 8.59129C212.673 9.09421 212.909 9.65074 213.021 10.2673L214.202 10.0527ZM213.295 7.90718C212.849 7.23839 212.227 6.69639 211.451 6.27326L210.876 7.32674C211.509 7.67161 211.974 8.08961 212.297 8.57282L213.295 7.90718ZM211.469 6.28344C210.647 5.79763 209.637 5.576 208.476 5.576V6.776C209.491 6.776 210.273 6.97037 210.859 7.31656L211.469 6.28344ZM208.476 5.576H189.084V6.776H208.476V5.576ZM189.084 5.576C187.894 5.576 186.867 5.79624 186.043 6.28344L186.653 7.31656C187.236 6.97176 188.033 6.776 189.084 6.776V5.576ZM186.05 6.27905C185.31 6.70167 184.7 7.23734 184.229 7.88871L185.202 8.59129C185.564 8.09066 186.041 7.66633 186.645 7.32095L186.05 6.27905ZM184.217 7.90718C183.79 8.5466 183.49 9.25484 183.315 10.027L184.485 10.293C184.629 9.65716 184.873 9.0854 185.215 8.57282L184.217 7.90718ZM183.31 10.0477C183.177 10.7501 183.108 11.4121 183.108 12.032H184.308C184.308 11.4999 184.367 10.9139 184.489 10.2723L183.31 10.0477ZM183.108 12.032C183.108 12.6514 183.176 13.328 183.309 14.0593L184.49 13.8447C184.367 13.168 184.308 12.5646 184.308 12.032H183.108ZM183.316 14.091C183.493 14.8322 183.793 15.5218 184.217 16.1568L185.215 15.4912C184.87 14.9742 184.627 14.4158 184.483 13.813L183.316 14.091ZM184.229 16.1753C184.696 16.8217 185.301 17.3695 186.032 17.8222L186.664 16.8018C186.051 16.4225 185.567 15.9783 185.202 15.4727L184.229 16.1753ZM186.06 17.8387C186.881 18.2861 187.901 18.488 189.084 18.488V17.288C188.026 17.288 187.223 17.1059 186.635 16.7853L186.06 17.8387ZM189.084 18.488H208.476V17.288H189.084V18.488ZM217.716 12.032C217.716 13.1784 217.52 14.3464 217.123 15.5383L218.261 15.9177C218.696 14.6136 218.916 13.3176 218.916 12.032H217.716ZM217.12 15.5473C216.756 16.6985 216.211 17.7579 215.484 18.728L216.444 19.448C217.252 18.3701 217.859 17.1895 218.264 15.9087L217.12 15.5473ZM215.489 18.7207C214.768 19.652 213.898 20.4173 212.876 21.0188L213.484 22.0532C214.637 21.3747 215.623 20.508 216.438 19.4553L215.489 18.7207ZM212.876 21.0188C211.888 21.5998 210.763 21.896 209.484 21.896V23.096C210.957 23.096 212.296 22.7522 213.484 22.0532L212.876 21.0188ZM209.484 21.896H187.596V23.096H209.484V21.896ZM187.625 21.8967C186.406 21.8373 185.339 21.5122 184.41 20.9312L183.774 21.9488C184.892 22.6478 186.161 23.0267 187.567 23.0953L187.625 21.8967ZM184.421 20.9384C183.456 20.3054 182.628 19.5223 181.934 18.5865L180.97 19.3015C181.748 20.3497 182.679 21.2306 183.763 21.9416L184.421 20.9384ZM181.941 18.5968C181.275 17.658 180.758 16.6107 180.392 15.4513L179.248 15.8127C179.649 17.0853 180.221 18.246 180.962 19.2912L181.941 18.5968ZM180.392 15.4513C180.025 14.2893 179.844 13.1502 179.844 12.032H178.644C178.644 13.2818 178.847 14.5427 179.248 15.8127L180.392 15.4513ZM179.844 12.032C179.844 10.8802 180.025 9.72509 180.392 8.56468L179.248 8.20332C178.846 9.47491 178.644 10.7518 178.644 12.032H179.844ZM180.389 8.57374C180.785 7.3867 181.346 6.32731 182.07 5.3913L181.121 4.6567C180.31 5.70468 179.687 6.8853 179.251 8.19426L180.389 8.57374ZM182.076 5.384C182.797 4.42258 183.665 3.64434 184.684 3.04516L184.076 2.01084C182.918 2.69166 181.931 3.57742 181.116 4.664L182.076 5.384ZM184.684 3.04516C185.672 2.46423 186.797 2.168 188.076 2.168V0.968C186.603 0.968 185.264 1.31177 184.076 2.01084L184.684 3.04516ZM188.076 2.168H209.964V0.968H188.076V2.168ZM209.935 2.16729C211.148 2.22646 212.211 2.56461 213.139 3.17363L213.797 2.17037C212.677 1.43539 211.404 1.03753 209.993 0.968712L209.935 2.16729ZM213.15 3.1808C214.106 3.77847 214.912 4.5394 215.57 5.46725L216.549 4.77275C215.8 3.7166 214.877 2.84552 213.786 2.1632L213.15 3.1808ZM215.578 5.47751C216.273 6.41426 216.803 7.45814 217.168 8.61268L218.312 8.25132C217.908 6.97385 217.319 5.80974 216.542 4.76249L215.578 5.47751ZM217.168 8.61268C217.535 9.77472 217.716 10.9138 217.716 12.032H218.916C218.916 10.7822 218.713 9.52128 218.312 8.25132L217.168 8.61268Z" fill="white"/>
<rect x="187" y="9" width="24" height="6" rx="3" fill="white"/>
<circle cx="68.5" cy="19.5" r="3.5" fill="#F80236"/>
<path d="M10.665 39C10.5523 39 10.4613 38.9697 10.392 38.909C10.3313 38.8483 10.288 38.7617 10.262 38.649L8.585 30.303C8.57633 30.2683 8.572 30.238 8.572 30.212C8.572 30.186 8.572 30.1687 8.572 30.16C8.572 30.0907 8.598 30.03 8.65 29.978C8.702 29.926 8.76267 29.9 8.832 29.9H9.508C9.69 29.9 9.794 29.9737 9.82 30.121L11.146 36.829L12.55 32.227C12.576 32.149 12.6193 32.0797 12.68 32.019C12.7493 31.9497 12.8447 31.915 12.966 31.915H13.447C13.577 31.915 13.6723 31.9497 13.733 32.019C13.7937 32.0797 13.8327 32.149 13.85 32.227L15.267 36.829L16.58 30.121C16.606 29.9737 16.7143 29.9 16.905 29.9H17.581C17.6503 29.9 17.711 29.926 17.763 29.978C17.815 30.03 17.841 30.0907 17.841 30.16C17.841 30.1687 17.8367 30.186 17.828 30.212C17.828 30.238 17.828 30.2683 17.828 30.303L16.151 38.649C16.125 38.7617 16.0773 38.8483 16.008 38.909C15.9473 38.9697 15.8607 39 15.748 39H15.241C15.1197 39 15.0243 38.9697 14.955 38.909C14.8857 38.8483 14.838 38.7703 14.812 38.675L13.2 33.722L11.601 38.675C11.5663 38.7703 11.5143 38.8483 11.445 38.909C11.3843 38.9697 11.2933 39 11.172 39H10.665ZM22.4402 39C22.3448 39 22.2712 38.974 22.2192 38.922C22.1672 38.8613 22.1412 38.7877 22.1412 38.701V30.212C22.1412 30.1167 22.1672 30.043 22.2192 29.991C22.2712 29.9303 22.3448 29.9 22.4402 29.9H25.7422C26.3835 29.9 26.9382 30.004 27.4062 30.212C27.8828 30.42 28.2512 30.732 28.5112 31.148C28.7712 31.5553 28.9012 32.0667 28.9012 32.682C28.9012 33.2973 28.7712 33.8087 28.5112 34.216C28.2512 34.6233 27.8828 34.931 27.4062 35.139C26.9382 35.347 26.3835 35.451 25.7422 35.451H23.4412V38.701C23.4412 38.7877 23.4108 38.8613 23.3502 38.922C23.2982 38.974 23.2245 39 23.1292 39H22.4402ZM23.4282 34.359H25.6772C26.3185 34.359 26.7995 34.216 27.1202 33.93C27.4408 33.644 27.6012 33.228 27.6012 32.682C27.6012 32.1447 27.4452 31.7287 27.1332 31.434C26.8212 31.1393 26.3358 30.992 25.6772 30.992H23.4282V34.359ZM41.8785 39.13C41.1158 39.13 40.4658 38.987 39.9285 38.701C39.3998 38.415 38.9925 38.012 38.7065 37.492C38.4292 36.972 38.2732 36.361 38.2385 35.659C38.2298 35.2777 38.2255 34.8747 38.2255 34.45C38.2255 34.0167 38.2298 33.605 38.2385 33.215C38.2732 32.513 38.4292 31.9063 38.7065 31.395C38.9925 30.8837 39.4042 30.485 39.9415 30.199C40.4788 29.913 41.1245 29.77 41.8785 29.77C42.4938 29.77 43.0268 29.8567 43.4775 30.03C43.9282 30.2033 44.2965 30.4243 44.5825 30.693C44.8772 30.953 45.0938 31.226 45.2325 31.512C45.3798 31.798 45.4578 32.0493 45.4665 32.266C45.4752 32.344 45.4535 32.409 45.4015 32.461C45.3495 32.5043 45.2802 32.526 45.1935 32.526H44.4265C44.3398 32.526 44.2748 32.5087 44.2315 32.474C44.1968 32.4393 44.1622 32.3787 44.1275 32.292C44.0495 32.0667 43.9195 31.8457 43.7375 31.629C43.5642 31.4123 43.3258 31.2347 43.0225 31.096C42.7278 30.9487 42.3465 30.875 41.8785 30.875C41.1938 30.875 40.6392 31.0613 40.2145 31.434C39.7985 31.8067 39.5732 32.422 39.5385 33.28C39.5125 34.0513 39.5125 34.8227 39.5385 35.594C39.5732 36.4607 39.8028 37.0847 40.2275 37.466C40.6522 37.8387 41.2068 38.025 41.8915 38.025C42.3508 38.025 42.7582 37.9427 43.1135 37.778C43.4775 37.6047 43.7635 37.3403 43.9715 36.985C44.1795 36.6297 44.2835 36.179 44.2835 35.633V35.087H42.3335C42.2468 35.087 42.1732 35.061 42.1125 35.009C42.0605 34.9483 42.0345 34.8703 42.0345 34.775V34.359C42.0345 34.2637 42.0605 34.19 42.1125 34.138C42.1732 34.0773 42.2468 34.047 42.3335 34.047H45.2715C45.3668 34.047 45.4405 34.0773 45.4925 34.138C45.5445 34.19 45.5705 34.2637 45.5705 34.359V35.607C45.5705 36.3177 45.4232 36.9373 45.1285 37.466C44.8425 37.9947 44.4222 38.4063 43.8675 38.701C43.3128 38.987 42.6498 39.13 41.8785 39.13ZM49.2364 39C49.1671 39 49.1064 38.974 49.0544 38.922C49.0024 38.87 48.9764 38.8093 48.9764 38.74C48.9764 38.6967 48.9807 38.649 48.9894 38.597L52.2134 30.186C52.2481 30.0993 52.2957 30.03 52.3564 29.978C52.4171 29.926 52.5081 29.9 52.6294 29.9H53.5134C53.6261 29.9 53.7127 29.926 53.7734 29.978C53.8427 30.03 53.8947 30.0993 53.9294 30.186L57.1404 38.597C57.1577 38.649 57.1664 38.6967 57.1664 38.74C57.1664 38.8093 57.1404 38.87 57.0884 38.922C57.0364 38.974 56.9757 39 56.9064 39H56.2434C56.1394 39 56.0614 38.974 56.0094 38.922C55.9661 38.87 55.9357 38.8223 55.9184 38.779L55.2034 36.933H50.9394L50.2244 38.779C50.2157 38.8223 50.1854 38.87 50.1334 38.922C50.0814 38.974 50.0034 39 49.8994 39H49.2364ZM51.3164 35.815H54.8264L53.0714 31.2L51.3164 35.815ZM61.4554 39C61.3687 39 61.2951 38.974 61.2344 38.922C61.1824 38.8613 61.1564 38.7877 61.1564 38.701V30.212C61.1564 30.1167 61.1824 30.043 61.2344 29.991C61.2951 29.9303 61.3687 29.9 61.4554 29.9H62.1054C62.2094 29.9 62.2874 29.926 62.3394 29.978C62.3914 30.03 62.4217 30.0733 62.4304 30.108L65.1864 35.36L67.9554 30.108C67.9727 30.0733 68.0031 30.03 68.0464 29.978C68.0984 29.926 68.1764 29.9 68.2804 29.9H68.9174C69.0127 29.9 69.0864 29.9303 69.1384 29.991C69.1991 30.043 69.2294 30.1167 69.2294 30.212V38.701C69.2294 38.7877 69.1991 38.8613 69.1384 38.922C69.0864 38.974 69.0127 39 68.9174 39H68.2804C68.1937 39 68.1201 38.974 68.0594 38.922C68.0074 38.8613 67.9814 38.7877 67.9814 38.701V32.305L65.8104 36.543C65.7757 36.6297 65.7237 36.699 65.6544 36.751C65.5851 36.7943 65.4984 36.816 65.3944 36.816H64.9914C64.8787 36.816 64.7877 36.7943 64.7184 36.751C64.6577 36.699 64.6057 36.6297 64.5624 36.543L62.3914 32.305V38.701C62.3914 38.7877 62.3611 38.8613 62.3004 38.922C62.2484 38.974 62.1791 39 62.0924 39H61.4554ZM74.3767 39C74.2813 39 74.2077 38.974 74.1557 38.922C74.1037 38.8613 74.0777 38.7877 74.0777 38.701V30.199C74.0777 30.1123 74.1037 30.043 74.1557 29.991C74.2077 29.9303 74.2813 29.9 74.3767 29.9H75.0657C75.1523 29.9 75.2217 29.9303 75.2737 29.991C75.3343 30.043 75.3647 30.1123 75.3647 30.199V38.701C75.3647 38.7877 75.3343 38.8613 75.2737 38.922C75.2217 38.974 75.1523 39 75.0657 39H74.3767ZM80.5314 39C80.436 39 80.3624 38.974 80.3104 38.922C80.2584 38.8613 80.2324 38.7877 80.2324 38.701V30.212C80.2324 30.1167 80.2584 30.043 80.3104 29.991C80.3624 29.9303 80.436 29.9 80.5314 29.9H81.1294C81.2334 29.9 81.3114 29.926 81.3634 29.978C81.4154 30.0213 81.4457 30.056 81.4544 30.082L85.7704 36.712V30.212C85.7704 30.1167 85.7964 30.043 85.8484 29.991C85.9004 29.9303 85.974 29.9 86.0694 29.9H86.6934C86.7887 29.9 86.8624 29.9303 86.9144 29.991C86.975 30.043 87.0054 30.1167 87.0054 30.212V38.688C87.0054 38.7747 86.975 38.8483 86.9144 38.909C86.8624 38.9697 86.793 39 86.7064 39H86.0824C85.987 39 85.9134 38.974 85.8614 38.922C85.818 38.87 85.7877 38.8353 85.7704 38.818L81.4674 32.253V38.701C81.4674 38.7877 81.437 38.8613 81.3764 38.922C81.3244 38.974 81.2507 39 81.1554 39H80.5314ZM95.1607 39.13C94.3981 39.13 93.7481 38.987 93.2107 38.701C92.6821 38.415 92.2747 38.012 91.9887 37.492C91.7114 36.972 91.5554 36.361 91.5207 35.659C91.5121 35.2777 91.5077 34.8747 91.5077 34.45C91.5077 34.0167 91.5121 33.605 91.5207 33.215C91.5554 32.513 91.7114 31.9063 91.9887 31.395C92.2747 30.8837 92.6864 30.485 93.2237 30.199C93.7611 29.913 94.4067 29.77 95.1607 29.77C95.7761 29.77 96.3091 29.8567 96.7597 30.03C97.2104 30.2033 97.5787 30.4243 97.8647 30.693C98.1594 30.953 98.3761 31.226 98.5147 31.512C98.6621 31.798 98.7401 32.0493 98.7487 32.266C98.7574 32.344 98.7357 32.409 98.6837 32.461C98.6317 32.5043 98.5624 32.526 98.4757 32.526H97.7087C97.6221 32.526 97.5571 32.5087 97.5137 32.474C97.4791 32.4393 97.4444 32.3787 97.4097 32.292C97.3317 32.0667 97.2017 31.8457 97.0197 31.629C96.8464 31.4123 96.6081 31.2347 96.3047 31.096C96.0101 30.9487 95.6287 30.875 95.1607 30.875C94.4761 30.875 93.9214 31.0613 93.4967 31.434C93.0807 31.8067 92.8554 32.422 92.8207 33.28C92.7947 34.0513 92.7947 34.8227 92.8207 35.594C92.8554 36.4607 93.0851 37.0847 93.5097 37.466C93.9344 37.8387 94.4891 38.025 95.1737 38.025C95.6331 38.025 96.0404 37.9427 96.3957 37.778C96.7597 37.6047 97.0457 37.3403 97.2537 36.985C97.4617 36.6297 97.5657 36.179 97.5657 35.633V35.087H95.6157C95.5291 35.087 95.4554 35.061 95.3947 35.009C95.3427 34.9483 95.3167 34.8703 95.3167 34.775V34.359C95.3167 34.2637 95.3427 34.19 95.3947 34.138C95.4554 34.0773 95.5291 34.047 95.6157 34.047H98.5537C98.6491 34.047 98.7227 34.0773 98.7747 34.138C98.8267 34.19 98.8527 34.2637 98.8527 34.359V35.607C98.8527 36.3177 98.7054 36.9373 98.4107 37.466C98.1247 37.9947 97.7044 38.4063 97.1497 38.701C96.5951 38.987 95.9321 39.13 95.1607 39.13ZM109.393 39C109.298 39 109.224 38.974 109.172 38.922C109.12 38.8613 109.094 38.7877 109.094 38.701V30.212C109.094 30.1167 109.12 30.043 109.172 29.991C109.224 29.9303 109.298 29.9 109.393 29.9H109.991C110.095 29.9 110.173 29.926 110.225 29.978C110.277 30.0213 110.307 30.056 110.316 30.082L114.632 36.712V30.212C114.632 30.1167 114.658 30.043 114.71 29.991C114.762 29.9303 114.836 29.9 114.931 29.9H115.555C115.65 29.9 115.724 29.9303 115.776 29.991C115.837 30.043 115.867 30.1167 115.867 30.212V38.688C115.867 38.7747 115.837 38.8483 115.776 38.909C115.724 38.9697 115.655 39 115.568 39H114.944C114.849 39 114.775 38.974 114.723 38.922C114.68 38.87 114.649 38.8353 114.632 38.818L110.329 32.253V38.701C110.329 38.7877 110.299 38.8613 110.238 38.922C110.186 38.974 110.112 39 110.017 39H109.393ZM121.019 39C120.924 39 120.85 38.974 120.798 38.922C120.746 38.8613 120.72 38.7877 120.72 38.701V30.212C120.72 30.1167 120.746 30.043 120.798 29.991C120.85 29.9303 120.924 29.9 121.019 29.9H126.388C126.484 29.9 126.557 29.9303 126.609 29.991C126.661 30.043 126.687 30.1167 126.687 30.212V30.706C126.687 30.8013 126.661 30.875 126.609 30.927C126.557 30.979 126.484 31.005 126.388 31.005H121.968V33.852H126.102C126.198 33.852 126.271 33.8823 126.323 33.943C126.375 33.995 126.401 34.0687 126.401 34.164V34.645C126.401 34.7317 126.375 34.8053 126.323 34.866C126.271 34.918 126.198 34.944 126.102 34.944H121.968V37.895H126.492C126.588 37.895 126.661 37.921 126.713 37.973C126.765 38.025 126.791 38.0987 126.791 38.194V38.701C126.791 38.7877 126.765 38.8613 126.713 38.922C126.661 38.974 126.588 39 126.492 39H121.019ZM132.738 39C132.625 39 132.534 38.9697 132.465 38.909C132.404 38.8483 132.361 38.7617 132.335 38.649L130.658 30.303C130.649 30.2683 130.645 30.238 130.645 30.212C130.645 30.186 130.645 30.1687 130.645 30.16C130.645 30.0907 130.671 30.03 130.723 29.978C130.775 29.926 130.836 29.9 130.905 29.9H131.581C131.763 29.9 131.867 29.9737 131.893 30.121L133.219 36.829L134.623 32.227C134.649 32.149 134.692 32.0797 134.753 32.019C134.822 31.9497 134.918 31.915 135.039 31.915H135.52C135.65 31.915 135.745 31.9497 135.806 32.019C135.867 32.0797 135.906 32.149 135.923 32.227L137.34 36.829L138.653 30.121C138.679 29.9737 138.787 29.9 138.978 29.9H139.654C139.723 29.9 139.784 29.926 139.836 29.978C139.888 30.03 139.914 30.0907 139.914 30.16C139.914 30.1687 139.91 30.186 139.901 30.212C139.901 30.238 139.901 30.2683 139.901 30.303L138.224 38.649C138.198 38.7617 138.15 38.8483 138.081 38.909C138.02 38.9697 137.934 39 137.821 39H137.314C137.193 39 137.097 38.9697 137.028 38.909C136.959 38.8483 136.911 38.7703 136.885 38.675L135.273 33.722L133.674 38.675C133.639 38.7703 133.587 38.8483 133.518 38.909C133.457 38.9697 133.366 39 133.245 39H132.738ZM147.025 39.13C146.271 39.13 145.638 39.0173 145.127 38.792C144.616 38.558 144.221 38.259 143.944 37.895C143.675 37.5223 143.532 37.128 143.515 36.712C143.515 36.6427 143.541 36.582 143.593 36.53C143.654 36.4693 143.723 36.439 143.801 36.439H144.464C144.568 36.439 144.646 36.465 144.698 36.517C144.75 36.569 144.785 36.6297 144.802 36.699C144.845 36.907 144.949 37.115 145.114 37.323C145.287 37.5223 145.526 37.6913 145.829 37.83C146.141 37.96 146.54 38.025 147.025 38.025C147.77 38.025 148.316 37.895 148.663 37.635C149.018 37.3663 149.196 37.011 149.196 36.569C149.196 36.2657 149.101 36.023 148.91 35.841C148.728 35.6503 148.446 35.4813 148.065 35.334C147.684 35.1867 147.19 35.0263 146.583 34.853C145.95 34.671 145.426 34.4717 145.01 34.255C144.594 34.0383 144.282 33.7697 144.074 33.449C143.875 33.1283 143.775 32.721 143.775 32.227C143.775 31.759 143.901 31.343 144.152 30.979C144.403 30.6063 144.763 30.3117 145.231 30.095C145.708 29.8783 146.284 29.77 146.96 29.77C147.497 29.77 147.965 29.8437 148.364 29.991C148.771 30.1297 149.109 30.3203 149.378 30.563C149.647 30.797 149.85 31.0527 149.989 31.33C150.128 31.5987 150.201 31.863 150.21 32.123C150.21 32.1837 150.188 32.2443 150.145 32.305C150.102 32.357 150.032 32.383 149.937 32.383H149.248C149.187 32.383 149.122 32.3657 149.053 32.331C148.992 32.2963 148.945 32.2313 148.91 32.136C148.858 31.7807 148.659 31.4817 148.312 31.239C147.965 30.9963 147.515 30.875 146.96 30.875C146.397 30.875 145.937 30.9833 145.582 31.2C145.235 31.4167 145.062 31.7547 145.062 32.214C145.062 32.5087 145.144 32.7557 145.309 32.955C145.474 33.1457 145.734 33.3147 146.089 33.462C146.444 33.6093 146.908 33.7653 147.48 33.93C148.173 34.1207 148.741 34.3243 149.183 34.541C149.625 34.749 149.95 35.0133 150.158 35.334C150.375 35.646 150.483 36.049 150.483 36.543C150.483 37.089 150.34 37.557 150.054 37.947C149.768 38.3283 149.365 38.623 148.845 38.831C148.334 39.0303 147.727 39.13 147.025 39.13ZM163.173 39.13C162.575 39.13 162.051 39.0217 161.6 38.805C161.15 38.5883 160.799 38.2893 160.547 37.908C160.296 37.518 160.17 37.0717 160.17 36.569C160.17 36.1703 160.253 35.8237 160.417 35.529C160.591 35.2257 160.816 34.957 161.093 34.723C161.371 34.489 161.674 34.2767 162.003 34.086C161.596 33.6527 161.306 33.2713 161.132 32.942C160.968 32.6127 160.885 32.2703 160.885 31.915C160.885 31.525 160.985 31.1697 161.184 30.849C161.384 30.5283 161.665 30.2683 162.029 30.069C162.393 29.8697 162.822 29.77 163.316 29.77C163.793 29.77 164.209 29.8653 164.564 30.056C164.928 30.2467 165.21 30.5023 165.409 30.823C165.609 31.1437 165.708 31.5033 165.708 31.902C165.708 32.2833 165.617 32.617 165.435 32.903C165.253 33.189 165.011 33.4447 164.707 33.67C164.413 33.8953 164.088 34.1077 163.732 34.307L165.942 36.478C166.081 36.2353 166.211 35.9537 166.332 35.633C166.462 35.3123 166.562 34.9353 166.631 34.502C166.657 34.3287 166.753 34.242 166.917 34.242H167.489C167.567 34.242 167.632 34.268 167.684 34.32C167.736 34.372 167.762 34.437 167.762 34.515C167.754 34.7057 167.723 34.9093 167.671 35.126C167.628 35.3427 167.559 35.5723 167.463 35.815C167.377 36.0577 167.268 36.3003 167.138 36.543C167.017 36.777 166.874 37.011 166.709 37.245L168.035 38.558C168.113 38.6273 168.152 38.6923 168.152 38.753C168.152 38.831 168.131 38.8917 168.087 38.935C168.044 38.9783 167.979 39 167.892 39H167.164C167.078 39 167.004 38.987 166.943 38.961C166.891 38.935 166.848 38.9047 166.813 38.87L165.955 38.025C165.617 38.3543 165.219 38.623 164.759 38.831C164.3 39.0303 163.771 39.13 163.173 39.13ZM163.173 38.09C163.52 38.09 163.867 38.0207 164.213 37.882C164.56 37.7347 164.881 37.518 165.175 37.232L162.744 34.853C162.372 35.061 162.047 35.2993 161.769 35.568C161.501 35.828 161.366 36.153 161.366 36.543C161.366 36.8723 161.449 37.154 161.613 37.388C161.787 37.6133 162.012 37.7867 162.289 37.908C162.567 38.0293 162.861 38.09 163.173 38.09ZM163.017 33.553C163.295 33.397 163.55 33.241 163.784 33.085C164.027 32.929 164.218 32.7557 164.356 32.565C164.504 32.3743 164.577 32.1577 164.577 31.915C164.577 31.5683 164.456 31.291 164.213 31.083C163.971 30.875 163.672 30.771 163.316 30.771C162.978 30.771 162.679 30.875 162.419 31.083C162.168 31.2823 162.042 31.564 162.042 31.928C162.042 32.0753 162.068 32.227 162.12 32.383C162.181 32.5303 162.281 32.695 162.419 32.877C162.558 33.059 162.757 33.2843 163.017 33.553ZM178.285 39C178.19 39 178.116 38.974 178.064 38.922C178.012 38.8613 177.986 38.7877 177.986 38.701V30.212C177.986 30.1167 178.012 30.043 178.064 29.991C178.116 29.9303 178.19 29.9 178.285 29.9H181.847C182.497 29.9 183.026 30.0083 183.433 30.225C183.849 30.433 184.153 30.719 184.343 31.083C184.543 31.447 184.642 31.8543 184.642 32.305C184.642 32.6603 184.582 32.968 184.46 33.228C184.348 33.4793 184.205 33.6873 184.031 33.852C183.858 34.008 183.689 34.1293 183.524 34.216C183.862 34.3807 184.161 34.6493 184.421 35.022C184.69 35.3947 184.824 35.8453 184.824 36.374C184.824 36.8507 184.716 37.2883 184.499 37.687C184.283 38.0857 183.958 38.4063 183.524 38.649C183.1 38.883 182.571 39 181.938 39H178.285ZM179.26 37.947H181.769C182.333 37.947 182.766 37.7953 183.069 37.492C183.373 37.1887 183.524 36.816 183.524 36.374C183.524 35.9147 183.373 35.5377 183.069 35.243C182.766 34.9397 182.333 34.788 181.769 34.788H179.26V37.947ZM179.26 33.748H181.652C182.207 33.748 182.627 33.6223 182.913 33.371C183.199 33.111 183.342 32.76 183.342 32.318C183.342 31.876 183.199 31.538 182.913 31.304C182.627 31.07 182.207 30.953 181.652 30.953H179.26V33.748ZM189.569 39C189.474 39 189.4 38.974 189.348 38.922C189.296 38.8613 189.27 38.7877 189.27 38.701V30.199C189.27 30.1123 189.296 30.043 189.348 29.991C189.4 29.9303 189.474 29.9 189.569 29.9H190.258C190.345 29.9 190.414 29.9303 190.466 29.991C190.518 30.043 190.544 30.1123 190.544 30.199V37.869H194.873C194.968 37.869 195.042 37.8993 195.094 37.96C195.146 38.012 195.172 38.0857 195.172 38.181V38.701C195.172 38.7877 195.146 38.8613 195.094 38.922C195.042 38.974 194.968 39 194.873 39H189.569ZM202.331 39.13C201.594 39.13 200.962 39.0043 200.433 38.753C199.904 38.493 199.497 38.0987 199.211 37.57C198.925 37.0327 198.765 36.361 198.73 35.555C198.721 35.1737 198.717 34.8097 198.717 34.463C198.717 34.1077 198.721 33.7393 198.73 33.358C198.765 32.5607 198.929 31.8977 199.224 31.369C199.527 30.8317 199.943 30.433 200.472 30.173C201.009 29.9043 201.629 29.77 202.331 29.77C203.042 29.77 203.661 29.9043 204.19 30.173C204.727 30.433 205.148 30.8317 205.451 31.369C205.754 31.8977 205.919 32.5607 205.945 33.358C205.962 33.7393 205.971 34.1077 205.971 34.463C205.971 34.8097 205.962 35.1737 205.945 35.555C205.919 36.361 205.759 37.0327 205.464 37.57C205.178 38.0987 204.771 38.493 204.242 38.753C203.713 39.0043 203.076 39.13 202.331 39.13ZM202.331 38.025C202.998 38.025 203.54 37.8257 203.956 37.427C204.381 37.0283 204.61 36.3827 204.645 35.49C204.662 35.1 204.671 34.7533 204.671 34.45C204.671 34.138 204.662 33.7913 204.645 33.41C204.628 32.812 204.515 32.3267 204.307 31.954C204.108 31.5813 203.839 31.3083 203.501 31.135C203.163 30.9617 202.773 30.875 202.331 30.875C201.906 30.875 201.525 30.9617 201.187 31.135C200.849 31.3083 200.576 31.5813 200.368 31.954C200.169 32.3267 200.056 32.812 200.03 33.41C200.021 33.7913 200.017 34.138 200.017 34.45C200.017 34.7533 200.021 35.1 200.03 35.49C200.065 36.3827 200.294 37.0283 200.719 37.427C201.144 37.8257 201.681 38.025 202.331 38.025ZM213.768 39.13C213.005 39.13 212.355 38.987 211.818 38.701C211.289 38.415 210.882 38.012 210.596 37.492C210.319 36.972 210.163 36.361 210.128 35.659C210.119 35.2777 210.115 34.8747 210.115 34.45C210.115 34.0167 210.119 33.605 210.128 33.215C210.163 32.513 210.319 31.9063 210.596 31.395C210.882 30.8837 211.294 30.485 211.831 30.199C212.368 29.913 213.014 29.77 213.768 29.77C214.383 29.77 214.916 29.8567 215.367 30.03C215.818 30.2033 216.186 30.4243 216.472 30.693C216.767 30.953 216.983 31.226 217.122 31.512C217.269 31.798 217.347 32.0493 217.356 32.266C217.365 32.344 217.343 32.409 217.291 32.461C217.239 32.5043 217.17 32.526 217.083 32.526H216.316C216.229 32.526 216.164 32.5087 216.121 32.474C216.086 32.4393 216.052 32.3787 216.017 32.292C215.939 32.0667 215.809 31.8457 215.627 31.629C215.454 31.4123 215.215 31.2347 214.912 31.096C214.617 30.9487 214.236 30.875 213.768 30.875C213.083 30.875 212.529 31.0613 212.104 31.434C211.688 31.8067 211.463 32.422 211.428 33.28C211.402 34.0513 211.402 34.8227 211.428 35.594C211.463 36.4607 211.692 37.0847 212.117 37.466C212.542 37.8387 213.096 38.025 213.781 38.025C214.24 38.025 214.648 37.9427 215.003 37.778C215.367 37.6047 215.653 37.3403 215.861 36.985C216.069 36.6297 216.173 36.179 216.173 35.633V35.087H214.223C214.136 35.087 214.063 35.061 214.002 35.009C213.95 34.9483 213.924 34.8703 213.924 34.775V34.359C213.924 34.2637 213.95 34.19 214.002 34.138C214.063 34.0773 214.136 34.047 214.223 34.047H217.161C217.256 34.047 217.33 34.0773 217.382 34.138C217.434 34.19 217.46 34.2637 217.46 34.359V35.607C217.46 36.3177 217.313 36.9373 217.018 37.466C216.732 37.9947 216.312 38.4063 215.757 38.701C215.202 38.987 214.539 39.13 213.768 39.13Z" fill="#F4F4F4"/>
</g>
<defs>
<clipPath id="clip0_9_102">
<rect width="224" height="40" fill="white"/>
</clipPath>
</defs>
</svg>
